<svg xmlns="http://www.w3.org/2000/svg" viewBox="0 0 600 900" width="600" height="900" role="img" aria-labelledby="film-096-title">
  <title id="film-096-title">Abstract poster artwork for the fictional short film Distant River</title>
  <defs>
    <linearGradient id="film-096-bg" x1="0" y1="0" x2="0" y2="1">
      <stop offset="0%" stop-color="#171122"/>
      <stop offset="100%" stop-color="#0a0710"/>
    </linearGradient>
    <linearGradient id="film-096-veil" x1="0" y1="0" x2="0" y2="1">
      <stop offset="0%" stop-color="#0a0710" stop-opacity="0"/>
      <stop offset="55%" stop-color="#0a0710" stop-opacity="0.82"/>
      <stop offset="100%" stop-color="#0a0710" stop-opacity="0.97"/>
    </linearGradient>
  </defs>

  <rect width="600" height="900" fill="url(#film-096-bg)"/>

  <g>
    <rect x="78" y="90" width="444" height="22" fill="#8f6fd6" opacity="0.9"/>
    <rect x="26" y="124" width="548" height="33" fill="#4d3a86" opacity="0.5"/>
    <rect x="104" y="169" width="392" height="10" fill="#4d3a86" opacity="0.5"/>
    <rect x="52" y="191" width="496" height="21" fill="#4d3a86" opacity="0.5"/>
    <rect x="0" y="224" width="600" height="32" fill="#8f6fd6" opacity="0.9"/>
    <rect x="78" y="268" width="444" height="9" fill="#4d3a86" opacity="0.5"/>
    <rect x="26" y="289" width="548" height="20" fill="#4d3a86" opacity="0.5"/>
    <rect x="104" y="321" width="392" height="31" fill="#4d3a86" opacity="0.5"/>
    <rect x="52" y="364" width="496" height="8" fill="#8f6fd6" opacity="0.9"/>
    <rect x="0" y="384" width="600" height="19" fill="#4d3a86" opacity="0.5"/>
    <rect x="78" y="415" width="444" height="30" fill="#4d3a86" opacity="0.5"/>
    <rect x="26" y="457" width="548" height="7" fill="#4d3a86" opacity="0.5"/>
    <rect x="104" y="476" width="392" height="18" fill="#8f6fd6" opacity="0.9"/>
    <rect x="52" y="506" width="496" height="29" fill="#4d3a86" opacity="0.5"/>
    <rect x="0" y="547" width="600" height="6" fill="#4d3a86" opacity="0.5"/>
  </g>

  <rect x="0" y="440" width="600" height="460" fill="url(#film-096-veil)"/>
  <rect x="56" y="672" width="70" height="4" fill="#8f6fd6"/>

  <text font-family="'Helvetica Neue', Helvetica, Arial, sans-serif" font-size="56" font-weight="700" fill="#faf7f1" letter-spacing="-0.5"><tspan x="56" y="754">Distant River</tspan></text>

  <text x="56" y="812" font-family="'Helvetica Neue', Helvetica, Arial, sans-serif" font-size="21" font-weight="600" fill="#8f6fd6" letter-spacing="2.4">2012 &#183; EXPERIMENTAL</text>

  <text x="56" y="848" font-family="'Helvetica Neue', Helvetica, Arial, sans-serif" font-size="17" fill="#a8a29a" letter-spacing="1.1">NETHERLANDS</text>
</svg>
