<svg xmlns="http://www.w3.org/2000/svg" viewBox="0 0 600 900" width="600" height="900" role="img" aria-labelledby="film-037-title">
  <title id="film-037-title">Abstract poster artwork for the fictional short film After City</title>
  <defs>
    <linearGradient id="film-037-bg" x1="0" y1="0" x2="0" y2="1">
      <stop offset="0%" stop-color="#1f1a12"/>
      <stop offset="100%" stop-color="#0e0b07"/>
    </linearGradient>
    <linearGradient id="film-037-veil" x1="0" y1="0" x2="0" y2="1">
      <stop offset="0%" stop-color="#0e0b07" stop-opacity="0"/>
      <stop offset="55%" stop-color="#0e0b07" stop-opacity="0.82"/>
      <stop offset="100%" stop-color="#0e0b07" stop-opacity="0.97"/>
    </linearGradient>
  </defs>

  <rect width="600" height="900" fill="url(#film-037-bg)"/>

  <g>
    <rect x="78" y="90" width="444" height="7" fill="#d8a13a" opacity="0.9"/>
    <rect x="26" y="109" width="548" height="18" fill="#8a6b2f" opacity="0.5"/>
    <rect x="104" y="139" width="392" height="29" fill="#8a6b2f" opacity="0.5"/>
    <rect x="52" y="180" width="496" height="6" fill="#8a6b2f" opacity="0.5"/>
    <rect x="0" y="198" width="600" height="17" fill="#d8a13a" opacity="0.9"/>
    <rect x="78" y="227" width="444" height="28" fill="#8a6b2f" opacity="0.5"/>
    <rect x="26" y="267" width="548" height="39" fill="#8a6b2f" opacity="0.5"/>
    <rect x="104" y="318" width="392" height="16" fill="#8a6b2f" opacity="0.5"/>
    <rect x="52" y="346" width="496" height="27" fill="#d8a13a" opacity="0.9"/>
    <rect x="0" y="385" width="600" height="38" fill="#8a6b2f" opacity="0.5"/>
    <rect x="78" y="435" width="444" height="15" fill="#8a6b2f" opacity="0.5"/>
    <rect x="26" y="462" width="548" height="26" fill="#8a6b2f" opacity="0.5"/>
    <rect x="104" y="500" width="392" height="37" fill="#d8a13a" opacity="0.9"/>
    <rect x="52" y="549" width="496" height="14" fill="#8a6b2f" opacity="0.5"/>
  </g>

  <rect x="0" y="440" width="600" height="460" fill="url(#film-037-veil)"/>
  <rect x="56" y="672" width="70" height="4" fill="#d8a13a"/>

  <text font-family="'Helvetica Neue', Helvetica, Arial, sans-serif" font-size="56" font-weight="700" fill="#faf7f1" letter-spacing="-0.5"><tspan x="56" y="754">After City</tspan></text>

  <text x="56" y="812" font-family="'Helvetica Neue', Helvetica, Arial, sans-serif" font-size="21" font-weight="600" fill="#d8a13a" letter-spacing="2.4">2019 &#183; DOCUMENTARY</text>

  <text x="56" y="848" font-family="'Helvetica Neue', Helvetica, Arial, sans-serif" font-size="17" fill="#a8a29a" letter-spacing="1.1">UNITED KINGDOM</text>
</svg>
