<svg xmlns="http://www.w3.org/2000/svg" viewBox="0 0 600 900" width="600" height="900" role="img" aria-labelledby="film-051-title">
  <title id="film-051-title">Abstract poster artwork for the fictional short film Quiet Archive</title>
  <defs>
    <linearGradient id="film-051-bg" x1="0" y1="0" x2="0" y2="1">
      <stop offset="0%" stop-color="#0f1b1d"/>
      <stop offset="100%" stop-color="#060d0e"/>
    </linearGradient>
    <linearGradient id="film-051-veil" x1="0" y1="0" x2="0" y2="1">
      <stop offset="0%" stop-color="#060d0e" stop-opacity="0"/>
      <stop offset="55%" stop-color="#060d0e" stop-opacity="0.82"/>
      <stop offset="100%" stop-color="#060d0e" stop-opacity="0.97"/>
    </linearGradient>
  </defs>

  <rect width="600" height="900" fill="url(#film-051-bg)"/>

  <g>
    <rect x="104" y="90" width="392" height="29" fill="#3fb8ae" opacity="0.9"/>
    <rect x="52" y="131" width="496" height="6" fill="#1d6f70" opacity="0.5"/>
    <rect x="0" y="149" width="600" height="17" fill="#1d6f70" opacity="0.5"/>
    <rect x="78" y="178" width="444" height="28" fill="#1d6f70" opacity="0.5"/>
    <rect x="26" y="218" width="548" height="39" fill="#3fb8ae" opacity="0.9"/>
    <rect x="104" y="269" width="392" height="16" fill="#1d6f70" opacity="0.5"/>
    <rect x="52" y="297" width="496" height="27" fill="#1d6f70" opacity="0.5"/>
    <rect x="0" y="336" width="600" height="38" fill="#1d6f70" opacity="0.5"/>
    <rect x="78" y="386" width="444" height="15" fill="#3fb8ae" opacity="0.9"/>
    <rect x="26" y="413" width="548" height="26" fill="#1d6f70" opacity="0.5"/>
    <rect x="104" y="451" width="392" height="37" fill="#1d6f70" opacity="0.5"/>
    <rect x="52" y="500" width="496" height="14" fill="#1d6f70" opacity="0.5"/>
    <rect x="0" y="526" width="600" height="25" fill="#3fb8ae" opacity="0.9"/>
  </g>

  <rect x="0" y="440" width="600" height="460" fill="url(#film-051-veil)"/>
  <rect x="56" y="672" width="70" height="4" fill="#3fb8ae"/>

  <text font-family="'Helvetica Neue', Helvetica, Arial, sans-serif" font-size="56" font-weight="700" fill="#faf7f1" letter-spacing="-0.5"><tspan x="56" y="754">Quiet Archive</tspan></text>

  <text x="56" y="812" font-family="'Helvetica Neue', Helvetica, Arial, sans-serif" font-size="21" font-weight="600" fill="#3fb8ae" letter-spacing="2.4">2017 &#183; ANIMATION</text>

  <text x="56" y="848" font-family="'Helvetica Neue', Helvetica, Arial, sans-serif" font-size="17" fill="#a8a29a" letter-spacing="1.1">FRANCE</text>
</svg>
