<svg xmlns="http://www.w3.org/2000/svg" viewBox="0 0 600 900" width="600" height="900" role="img" aria-labelledby="film-10-title">
  <title id="film-10-title">Abstract poster artwork for the fictional short film Listening for Concrete</title>
  <defs>
    <linearGradient id="film-10-bg" x1="0" y1="0" x2="0" y2="1">
      <stop offset="0%" stop-color="#1f1a12"/>
      <stop offset="100%" stop-color="#0e0b07"/>
    </linearGradient>
    <linearGradient id="film-10-veil" x1="0" y1="0" x2="0" y2="1">
      <stop offset="0%" stop-color="#0e0b07" stop-opacity="0"/>
      <stop offset="55%" stop-color="#0e0b07" stop-opacity="0.82"/>
      <stop offset="100%" stop-color="#0e0b07" stop-opacity="0.97"/>
    </linearGradient>
  </defs>

  <rect width="600" height="900" fill="url(#film-10-bg)"/>

  <g>
    <path d="M 0 120 C 150 100, 300 140, 450 110 S 600 130, 600 120" fill="none" stroke="#d8a13a" stroke-width="3" opacity="0.85"/>
    <path d="M 0 150 C 150 123, 300 177, 450 136.5 S 600 163.5, 600 150" fill="none" stroke="#8a6b2f" stroke-width="1.5" opacity="0.8049999999999999"/>
    <path d="M 0 180 C 150 146, 300 214, 450 163 S 600 197, 600 180" fill="none" stroke="#8a6b2f" stroke-width="1.5" opacity="0.76"/>
    <path d="M 0 210 C 150 169, 300 251, 450 189.5 S 600 230.5, 600 210" fill="none" stroke="#8a6b2f" stroke-width="1.5" opacity="0.715"/>
    <path d="M 0 240 C 150 218, 300 262, 450 229 S 600 251, 600 240" fill="none" stroke="#d8a13a" stroke-width="3" opacity="0.6699999999999999"/>
    <path d="M 0 270 C 150 241, 300 299, 450 255.5 S 600 284.5, 600 270" fill="none" stroke="#8a6b2f" stroke-width="1.5" opacity="0.625"/>
    <path d="M 0 300 C 150 264, 300 336, 450 282 S 600 318, 600 300" fill="none" stroke="#8a6b2f" stroke-width="1.5" opacity="0.58"/>
    <path d="M 0 330 C 150 287, 300 373, 450 308.5 S 600 351.5, 600 330" fill="none" stroke="#8a6b2f" stroke-width="1.5" opacity="0.5349999999999999"/>
    <path d="M 0 360 C 150 336, 300 384, 450 348 S 600 372, 600 360" fill="none" stroke="#d8a13a" stroke-width="3" opacity="0.49"/>
    <path d="M 0 390 C 150 359, 300 421, 450 374.5 S 600 405.5, 600 390" fill="none" stroke="#8a6b2f" stroke-width="1.5" opacity="0.445"/>
    <path d="M 0 420 C 150 382, 300 458, 450 401 S 600 439, 600 420" fill="none" stroke="#8a6b2f" stroke-width="1.5" opacity="0.4"/>
    <path d="M 0 450 C 150 431, 300 469, 450 440.5 S 600 459.5, 600 450" fill="none" stroke="#8a6b2f" stroke-width="1.5" opacity="0.355"/>
    <path d="M 0 480 C 150 454, 300 506, 450 467 S 600 493, 600 480" fill="none" stroke="#d8a13a" stroke-width="3" opacity="0.30999999999999994"/>
    <path d="M 0 510 C 150 477, 300 543, 450 493.5 S 600 526.5, 600 510" fill="none" stroke="#8a6b2f" stroke-width="1.5" opacity="0.265"/>
  </g>

  <rect x="0" y="440" width="600" height="460" fill="url(#film-10-veil)"/>
  <rect x="56" y="606" width="70" height="4" fill="#d8a13a"/>

  <text font-family="'Helvetica Neue', Helvetica, Arial, sans-serif" font-size="56" font-weight="700" fill="#faf7f1" letter-spacing="-0.5"><tspan x="56" y="688">Listening for</tspan><tspan x="56" y="754">Concrete</tspan></text>

  <text x="56" y="812" font-family="'Helvetica Neue', Helvetica, Arial, sans-serif" font-size="21" font-weight="600" fill="#d8a13a" letter-spacing="2.4">2022 &#183; DOCUMENTARY</text>

  <text x="56" y="848" font-family="'Helvetica Neue', Helvetica, Arial, sans-serif" font-size="17" fill="#a8a29a" letter-spacing="1.1">GERMANY</text>
</svg>
