<svg xmlns="http://www.w3.org/2000/svg" viewBox="0 0 600 900" width="600" height="900" role="img" aria-labelledby="film-093-title">
  <title id="film-093-title">Abstract poster artwork for the fictional short film Beyond Sky</title>
  <defs>
    <linearGradient id="film-093-bg" x1="0" y1="0" x2="0" y2="1">
      <stop offset="0%" stop-color="#1f1a12"/>
      <stop offset="100%" stop-color="#0e0b07"/>
    </linearGradient>
    <linearGradient id="film-093-veil" x1="0" y1="0" x2="0" y2="1">
      <stop offset="0%" stop-color="#0e0b07" stop-opacity="0"/>
      <stop offset="55%" stop-color="#0e0b07" stop-opacity="0.82"/>
      <stop offset="100%" stop-color="#0e0b07" stop-opacity="0.97"/>
    </linearGradient>
  </defs>

  <rect width="600" height="900" fill="url(#film-093-bg)"/>

  <g>
    <rect x="0" y="90" width="600" height="19" fill="#d8a13a" opacity="0.9"/>
    <rect x="78" y="121" width="444" height="30" fill="#8a6b2f" opacity="0.5"/>
    <rect x="26" y="163" width="548" height="7" fill="#8a6b2f" opacity="0.5"/>
    <rect x="104" y="182" width="392" height="18" fill="#8a6b2f" opacity="0.5"/>
    <rect x="52" y="212" width="496" height="29" fill="#d8a13a" opacity="0.9"/>
    <rect x="0" y="253" width="600" height="6" fill="#8a6b2f" opacity="0.5"/>
    <rect x="78" y="271" width="444" height="17" fill="#8a6b2f" opacity="0.5"/>
    <rect x="26" y="300" width="548" height="28" fill="#8a6b2f" opacity="0.5"/>
    <rect x="104" y="340" width="392" height="39" fill="#d8a13a" opacity="0.9"/>
    <rect x="52" y="391" width="496" height="16" fill="#8a6b2f" opacity="0.5"/>
    <rect x="0" y="419" width="600" height="27" fill="#8a6b2f" opacity="0.5"/>
    <rect x="78" y="458" width="444" height="38" fill="#8a6b2f" opacity="0.5"/>
    <rect x="26" y="508" width="548" height="15" fill="#d8a13a" opacity="0.9"/>
    <rect x="104" y="535" width="392" height="26" fill="#8a6b2f" opacity="0.5"/>
  </g>

  <rect x="0" y="440" width="600" height="460" fill="url(#film-093-veil)"/>
  <rect x="56" y="672" width="70" height="4" fill="#d8a13a"/>

  <text font-family="'Helvetica Neue', Helvetica, Arial, sans-serif" font-size="56" font-weight="700" fill="#faf7f1" letter-spacing="-0.5"><tspan x="56" y="754">Beyond Sky</tspan></text>

  <text x="56" y="812" font-family="'Helvetica Neue', Helvetica, Arial, sans-serif" font-size="21" font-weight="600" fill="#d8a13a" letter-spacing="2.4">2011 &#183; DOCUMENTARY</text>

  <text x="56" y="848" font-family="'Helvetica Neue', Helvetica, Arial, sans-serif" font-size="17" fill="#a8a29a" letter-spacing="1.1">JAPAN</text>
</svg>
