<svg xmlns="http://www.w3.org/2000/svg" viewBox="0 0 600 900" width="600" height="900" role="img" aria-labelledby="film-126-title">
  <title id="film-126-title">Abstract poster artwork for the fictional short film Soft Bird</title>
  <defs>
    <linearGradient id="film-126-bg" x1="0" y1="0" x2="0" y2="1">
      <stop offset="0%" stop-color="#1e1214"/>
      <stop offset="100%" stop-color="#0d0708"/>
    </linearGradient>
    <linearGradient id="film-126-veil" x1="0" y1="0" x2="0" y2="1">
      <stop offset="0%" stop-color="#0d0708" stop-opacity="0"/>
      <stop offset="55%" stop-color="#0d0708" stop-opacity="0.82"/>
      <stop offset="100%" stop-color="#0d0708" stop-opacity="0.97"/>
    </linearGradient>
  </defs>

  <rect width="600" height="900" fill="url(#film-126-bg)"/>

  <g>
    <rect x="52" y="90" width="496" height="18" fill="#c9503f" opacity="0.9"/>
    <rect x="0" y="120" width="600" height="29" fill="#9e4239" opacity="0.5"/>
    <rect x="78" y="161" width="444" height="6" fill="#9e4239" opacity="0.5"/>
    <rect x="26" y="179" width="548" height="17" fill="#9e4239" opacity="0.5"/>
    <rect x="104" y="208" width="392" height="28" fill="#c9503f" opacity="0.9"/>
    <rect x="52" y="248" width="496" height="39" fill="#9e4239" opacity="0.5"/>
    <rect x="0" y="299" width="600" height="16" fill="#9e4239" opacity="0.5"/>
    <rect x="78" y="327" width="444" height="27" fill="#9e4239" opacity="0.5"/>
    <rect x="26" y="366" width="548" height="38" fill="#c9503f" opacity="0.9"/>
    <rect x="104" y="416" width="392" height="15" fill="#9e4239" opacity="0.5"/>
    <rect x="52" y="443" width="496" height="26" fill="#9e4239" opacity="0.5"/>
    <rect x="0" y="481" width="600" height="37" fill="#9e4239" opacity="0.5"/>
    <rect x="78" y="530" width="444" height="14" fill="#c9503f" opacity="0.9"/>
    <rect x="26" y="556" width="548" height="25" fill="#9e4239" opacity="0.5"/>
  </g>

  <rect x="0" y="440" width="600" height="460" fill="url(#film-126-veil)"/>
  <rect x="56" y="672" width="70" height="4" fill="#c9503f"/>

  <text font-family="'Helvetica Neue', Helvetica, Arial, sans-serif" font-size="56" font-weight="700" fill="#faf7f1" letter-spacing="-0.5"><tspan x="56" y="754">Soft Bird</tspan></text>

  <text x="56" y="812" font-family="'Helvetica Neue', Helvetica, Arial, sans-serif" font-size="21" font-weight="600" fill="#c9503f" letter-spacing="2.4">2022 &#183; DRAMA</text>

  <text x="56" y="848" font-family="'Helvetica Neue', Helvetica, Arial, sans-serif" font-size="17" fill="#a8a29a" letter-spacing="1.1">NORWAY</text>
</svg>
