<svg xmlns="http://www.w3.org/2000/svg" viewBox="0 0 600 900" width="600" height="900" role="img" aria-labelledby="film-014-title">
  <title id="film-014-title">Abstract poster artwork for the fictional short film Blue Hour Assembly</title>
  <defs>
    <linearGradient id="film-014-bg" x1="0" y1="0" x2="0" y2="1">
      <stop offset="0%" stop-color="#171122"/>
      <stop offset="100%" stop-color="#0a0710"/>
    </linearGradient>
    <linearGradient id="film-014-veil" x1="0" y1="0" x2="0" y2="1">
      <stop offset="0%" stop-color="#0a0710" stop-opacity="0"/>
      <stop offset="55%" stop-color="#0a0710" stop-opacity="0.82"/>
      <stop offset="100%" stop-color="#0a0710" stop-opacity="0.97"/>
    </linearGradient>
  </defs>

  <rect width="600" height="900" fill="url(#film-014-bg)"/>

  <g>
    <rect x="78" y="90" width="444" height="10" fill="#8f6fd6" opacity="0.9"/>
    <rect x="26" y="112" width="548" height="21" fill="#4d3a86" opacity="0.5"/>
    <rect x="104" y="145" width="392" height="32" fill="#4d3a86" opacity="0.5"/>
    <rect x="52" y="189" width="496" height="9" fill="#4d3a86" opacity="0.5"/>
    <rect x="0" y="210" width="600" height="20" fill="#8f6fd6" opacity="0.9"/>
    <rect x="78" y="242" width="444" height="31" fill="#4d3a86" opacity="0.5"/>
    <rect x="26" y="285" width="548" height="8" fill="#4d3a86" opacity="0.5"/>
    <rect x="104" y="305" width="392" height="19" fill="#4d3a86" opacity="0.5"/>
    <rect x="52" y="336" width="496" height="30" fill="#8f6fd6" opacity="0.9"/>
    <rect x="0" y="378" width="600" height="7" fill="#4d3a86" opacity="0.5"/>
    <rect x="78" y="397" width="444" height="18" fill="#4d3a86" opacity="0.5"/>
    <rect x="26" y="427" width="548" height="29" fill="#4d3a86" opacity="0.5"/>
    <rect x="104" y="468" width="392" height="6" fill="#8f6fd6" opacity="0.9"/>
    <rect x="52" y="486" width="496" height="17" fill="#4d3a86" opacity="0.5"/>
    <rect x="0" y="515" width="600" height="28" fill="#4d3a86" opacity="0.5"/>
    <rect x="78" y="555" width="444" height="39" fill="#4d3a86" opacity="0.5"/>
  </g>

  <rect x="0" y="440" width="600" height="460" fill="url(#film-014-veil)"/>
  <rect x="56" y="606" width="70" height="4" fill="#8f6fd6"/>

  <text font-family="'Helvetica Neue', Helvetica, Arial, sans-serif" font-size="56" font-weight="700" fill="#faf7f1" letter-spacing="-0.5"><tspan x="56" y="688">Blue Hour</tspan><tspan x="56" y="754">Assembly</tspan></text>

  <text x="56" y="812" font-family="'Helvetica Neue', Helvetica, Arial, sans-serif" font-size="21" font-weight="600" fill="#8f6fd6" letter-spacing="2.4">2023 &#183; EXPERIMENTAL</text>

  <text x="56" y="848" font-family="'Helvetica Neue', Helvetica, Arial, sans-serif" font-size="17" fill="#a8a29a" letter-spacing="1.1">NETHERLANDS</text>
</svg>
