<svg xmlns="http://www.w3.org/2000/svg" viewBox="0 0 600 900" width="600" height="900" role="img" aria-labelledby="film-178-title">
  <title id="film-178-title">Abstract poster artwork for the fictional short film Red River</title>
  <defs>
    <linearGradient id="film-178-bg" x1="0" y1="0" x2="0" y2="1">
      <stop offset="0%" stop-color="#1e1214"/>
      <stop offset="100%" stop-color="#0d0708"/>
    </linearGradient>
    <linearGradient id="film-178-veil" x1="0" y1="0" x2="0" y2="1">
      <stop offset="0%" stop-color="#0d0708" stop-opacity="0"/>
      <stop offset="55%" stop-color="#0d0708" stop-opacity="0.82"/>
      <stop offset="100%" stop-color="#0d0708" stop-opacity="0.97"/>
    </linearGradient>
  </defs>

  <rect width="600" height="900" fill="url(#film-178-bg)"/>

  <g>
    <rect x="104" y="90" width="392" height="39" fill="#c9503f" opacity="0.9"/>
    <rect x="52" y="141" width="496" height="16" fill="#9e4239" opacity="0.5"/>
    <rect x="0" y="169" width="600" height="27" fill="#9e4239" opacity="0.5"/>
    <rect x="78" y="208" width="444" height="38" fill="#9e4239" opacity="0.5"/>
    <rect x="26" y="258" width="548" height="15" fill="#c9503f" opacity="0.9"/>
    <rect x="104" y="285" width="392" height="26" fill="#9e4239" opacity="0.5"/>
    <rect x="52" y="323" width="496" height="37" fill="#9e4239" opacity="0.5"/>
    <rect x="0" y="372" width="600" height="14" fill="#9e4239" opacity="0.5"/>
    <rect x="78" y="398" width="444" height="25" fill="#c9503f" opacity="0.9"/>
    <rect x="26" y="435" width="548" height="36" fill="#9e4239" opacity="0.5"/>
    <rect x="104" y="483" width="392" height="13" fill="#9e4239" opacity="0.5"/>
    <rect x="52" y="508" width="496" height="24" fill="#9e4239" opacity="0.5"/>
    <rect x="0" y="544" width="600" height="35" fill="#c9503f" opacity="0.9"/>
  </g>

  <rect x="0" y="440" width="600" height="460" fill="url(#film-178-veil)"/>
  <rect x="56" y="672" width="70" height="4" fill="#c9503f"/>

  <text font-family="'Helvetica Neue', Helvetica, Arial, sans-serif" font-size="56" font-weight="700" fill="#faf7f1" letter-spacing="-0.5"><tspan x="56" y="754">Red River</tspan></text>

  <text x="56" y="812" font-family="'Helvetica Neue', Helvetica, Arial, sans-serif" font-size="21" font-weight="600" fill="#c9503f" letter-spacing="2.4">2026 &#183; DRAMA</text>

  <text x="56" y="848" font-family="'Helvetica Neue', Helvetica, Arial, sans-serif" font-size="17" fill="#a8a29a" letter-spacing="1.1">GERMANY</text>
</svg>
