<svg xmlns="http://www.w3.org/2000/svg" viewBox="0 0 600 900" width="600" height="900" role="img" aria-labelledby="film-105-title">
  <title id="film-105-title">Abstract poster artwork for the fictional short film Quiet Current</title>
  <defs>
    <linearGradient id="film-105-bg" x1="0" y1="0" x2="0" y2="1">
      <stop offset="0%" stop-color="#1f1a12"/>
      <stop offset="100%" stop-color="#0e0b07"/>
    </linearGradient>
    <linearGradient id="film-105-veil" x1="0" y1="0" x2="0" y2="1">
      <stop offset="0%" stop-color="#0e0b07" stop-opacity="0"/>
      <stop offset="55%" stop-color="#0e0b07" stop-opacity="0.82"/>
      <stop offset="100%" stop-color="#0e0b07" stop-opacity="0.97"/>
    </linearGradient>
  </defs>

  <rect width="600" height="900" fill="url(#film-105-bg)"/>

  <g>
    <rect x="104" y="90" width="392" height="23" fill="#d8a13a" opacity="0.9"/>
    <rect x="52" y="125" width="496" height="34" fill="#8a6b2f" opacity="0.5"/>
    <rect x="0" y="171" width="600" height="11" fill="#8a6b2f" opacity="0.5"/>
    <rect x="78" y="194" width="444" height="22" fill="#8a6b2f" opacity="0.5"/>
    <rect x="26" y="228" width="548" height="33" fill="#d8a13a" opacity="0.9"/>
    <rect x="104" y="273" width="392" height="10" fill="#8a6b2f" opacity="0.5"/>
    <rect x="52" y="295" width="496" height="21" fill="#8a6b2f" opacity="0.5"/>
    <rect x="0" y="328" width="600" height="32" fill="#8a6b2f" opacity="0.5"/>
    <rect x="78" y="372" width="444" height="9" fill="#d8a13a" opacity="0.9"/>
    <rect x="26" y="393" width="548" height="20" fill="#8a6b2f" opacity="0.5"/>
    <rect x="104" y="425" width="392" height="31" fill="#8a6b2f" opacity="0.5"/>
    <rect x="52" y="468" width="496" height="8" fill="#8a6b2f" opacity="0.5"/>
    <rect x="0" y="488" width="600" height="19" fill="#d8a13a" opacity="0.9"/>
    <rect x="78" y="519" width="444" height="30" fill="#8a6b2f" opacity="0.5"/>
  </g>

  <rect x="0" y="440" width="600" height="460" fill="url(#film-105-veil)"/>
  <rect x="56" y="672" width="70" height="4" fill="#d8a13a"/>

  <text font-family="'Helvetica Neue', Helvetica, Arial, sans-serif" font-size="56" font-weight="700" fill="#faf7f1" letter-spacing="-0.5"><tspan x="56" y="754">Quiet Current</tspan></text>

  <text x="56" y="812" font-family="'Helvetica Neue', Helvetica, Arial, sans-serif" font-size="21" font-weight="600" fill="#d8a13a" letter-spacing="2.4">2015 &#183; DOCUMENTARY</text>

  <text x="56" y="848" font-family="'Helvetica Neue', Helvetica, Arial, sans-serif" font-size="17" fill="#a8a29a" letter-spacing="1.1">JAPAN</text>
</svg>
