<svg xmlns="http://www.w3.org/2000/svg" viewBox="0 0 600 900" width="600" height="900" role="img" aria-labelledby="film-180-title">
  <title id="film-180-title">Abstract poster artwork for the fictional short film Soft Garden</title>
  <defs>
    <linearGradient id="film-180-bg" x1="0" y1="0" x2="0" y2="1">
      <stop offset="0%" stop-color="#171122"/>
      <stop offset="100%" stop-color="#0a0710"/>
    </linearGradient>
    <linearGradient id="film-180-veil" x1="0" y1="0" x2="0" y2="1">
      <stop offset="0%" stop-color="#0a0710" stop-opacity="0"/>
      <stop offset="55%" stop-color="#0a0710" stop-opacity="0.82"/>
      <stop offset="100%" stop-color="#0a0710" stop-opacity="0.97"/>
    </linearGradient>
  </defs>

  <rect width="600" height="900" fill="url(#film-180-bg)"/>

  <g>
    <rect x="52" y="90" width="496" height="28" fill="#8f6fd6" opacity="0.9"/>
    <rect x="0" y="130" width="600" height="39" fill="#4d3a86" opacity="0.5"/>
    <rect x="78" y="181" width="444" height="16" fill="#4d3a86" opacity="0.5"/>
    <rect x="26" y="209" width="548" height="27" fill="#4d3a86" opacity="0.5"/>
    <rect x="104" y="248" width="392" height="38" fill="#8f6fd6" opacity="0.9"/>
    <rect x="52" y="298" width="496" height="15" fill="#4d3a86" opacity="0.5"/>
    <rect x="0" y="325" width="600" height="26" fill="#4d3a86" opacity="0.5"/>
    <rect x="78" y="363" width="444" height="37" fill="#4d3a86" opacity="0.5"/>
    <rect x="26" y="412" width="548" height="14" fill="#8f6fd6" opacity="0.9"/>
    <rect x="104" y="438" width="392" height="25" fill="#4d3a86" opacity="0.5"/>
    <rect x="52" y="475" width="496" height="36" fill="#4d3a86" opacity="0.5"/>
    <rect x="0" y="523" width="600" height="13" fill="#4d3a86" opacity="0.5"/>
    <rect x="78" y="548" width="444" height="24" fill="#8f6fd6" opacity="0.9"/>
  </g>

  <rect x="0" y="440" width="600" height="460" fill="url(#film-180-veil)"/>
  <rect x="56" y="672" width="70" height="4" fill="#8f6fd6"/>

  <text font-family="'Helvetica Neue', Helvetica, Arial, sans-serif" font-size="56" font-weight="700" fill="#faf7f1" letter-spacing="-0.5"><tspan x="56" y="754">Soft Garden</tspan></text>

  <text x="56" y="812" font-family="'Helvetica Neue', Helvetica, Arial, sans-serif" font-size="21" font-weight="600" fill="#8f6fd6" letter-spacing="2.4">2020 &#183; EXPERIMENTAL</text>

  <text x="56" y="848" font-family="'Helvetica Neue', Helvetica, Arial, sans-serif" font-size="17" fill="#a8a29a" letter-spacing="1.1">NETHERLANDS</text>
</svg>
